<svg role="img" width="60" height="40" viewBox="0 0 60 40" version="1.1" xmlns="http://www.w3.org/2000/svg" xmlns:xlink="http://www.w3.org/1999/xlink">
<title>Apple Pay</title>
<desc>Created with Sketch.</desc>
<defs></defs>
<g id="Assets" stroke="none" stroke-width="1" fill="none" fill-rule="evenodd">
<g id="payment-logos" transform="translate(-3944.000000, -99.000000)">
<g id="applepay-colour" transform="translate(3944.000000, 99.000000)">
<path d="M59.2496319,4.00054634 L59.2496319,36.0008195 C59.2496319,37.7654852 57.9038351,39.1996176 56.2494398,39.1996176 L3.74927972,39.1996176 C2.09488444,39.1996176 0.74908765,37.7654852 0.74908765,36.0008195 L0.74908765,4.00054634 C0.74908765,2.23588063 2.09488444,0.800382435 3.74927972,0.800382435 L56.2494398,0.800382435 C57.9038351,0.800382435 59.2496319,2.23588063 59.2496319,4.00054634 Z M3.74927972,0 C1.68768807,0 0,1.80017756 0,4.00054634 L0,36.0008195 C0,38.1998224 1.68768807,40 3.74927972,40 L56.2494398,40 C58.3123119,40 60,38.1998224 60,36.0008195 L60,4.00054634 C60,1.80017756 58.3123119,0 56.2494398,0 L3.74927972,0 Z" id="Fill-20-Copy-12" fill="#DDDDDD" fill-rule="evenodd"></path>
<path d="M18.2981132,19.3069544 C18.3234925,21.9577324 20.6987237,22.8396633 20.7250094,22.8509933 C20.7050686,22.9135352 20.3456794,24.1081754 19.4741722,25.3426974 C18.7200442,26.4095347 17.9378177,27.4727464 16.7055617,27.4949533 C15.4946062,27.516707 15.105759,26.7997416 13.7207739,26.7997416 C12.3366953,26.7997416 11.9038875,27.4727464 10.7577399,27.516707 C9.56853806,27.5602144 8.66258744,26.3624017 7.90256784,25.29919 C6.3494449,23.1238209 5.1625091,19.1537722 6.75642021,16.4735361 C7.54816395,15.1424821 8.9626071,14.2995265 10.4985084,14.278226 C11.6664097,14.2564723 12.7690499,15.039152 13.4832961,15.039152 C14.1966359,15.039152 15.536754,14.0978517 16.9457587,14.2360782 C17.5349212,14.2600979 19.1900146,14.466758 20.2527731,15.9736544 C20.1666647,16.0253194 18.2772659,17.0907971 18.2981132,19.3069544 Z M16.0221332,12.7971622 C16.6534435,12.0566303 17.0790001,11.0260491 16.9629804,10 C16.0524978,10.0353497 14.9516703,10.5873497 14.2990596,11.3274284 C13.7135227,11.9827584 13.2014046,13.0314676 13.3396311,14.0371226 C14.3548034,14.1132605 15.390823,13.5376941 16.0225864,12.796709 L16.0221332,12.7971622 Z M25.1627625,11.5295564 C25.6770535,11.4443228 26.193598,11.3732942 26.7118067,11.3165515 C27.3307758,11.2507121 27.9529194,11.2192418 28.5753729,11.2222855 C29.5434122,11.2222855 30.3777569,11.3364924 31.0793135,11.5649062 C31.7817764,11.79332 32.357796,12.1205317 32.8091851,12.5460883 C33.2000351,12.9288113 33.5088926,13.3870861 33.7169486,13.8930044 C33.9344855,14.412827 34.0423475,15.0119599 34.0423475,15.6894968 C34.0423475,16.5088858 33.8941505,17.2258512 33.5954905,17.840393 C33.3084915,18.4409315 32.8910652,18.9698367 32.3736581,19.3885307 C31.8570079,19.8054765 31.244279,20.1168262 30.5345648,20.3221267 C29.8243974,20.5265207 29.0503285,20.6289444 28.2109986,20.6289444 C27.453245,20.6289444 26.8160431,20.5741069 26.3002993,20.4639789 L26.3002993,27.2710715 L25.1627625,27.2710715 L25.1627625,11.5295564 Z M26.3002993,19.4714667 C26.5744865,19.5498706 26.880851,19.6051613 27.219846,19.6364322 C27.558841,19.6681563 27.9214026,19.6835652 28.308437,19.6835652 C29.7600427,19.6835652 30.885343,19.3527278 31.6838848,18.691053 C32.4819734,18.0293782 32.8816975,17.0599793 32.8816975,15.7837628 C32.8816975,15.169221 32.7770078,14.6330831 32.5671753,14.1762556 C32.368044,13.7326987 32.0601773,13.3465793 31.6721016,13.0536745 C31.2850671,12.7618124 30.8255204,12.5415563 30.2930081,12.3915465 C29.7600427,12.2419898 29.1713334,12.1672115 28.5255207,12.1672115 C28.0097769,12.1672115 27.5660923,12.1866992 27.1949199,12.2261278 C26.8242007,12.2655563 26.5255407,12.3090637 26.2998461,12.3561967 L26.2998461,19.4714667 L26.3002993,19.4714667 Z M43.089164,24.5772394 C43.089164,25.0340669 43.0968685,25.4913476 43.1131837,25.9481752 C43.1290458,26.4050027 43.1770852,26.845515 43.2582084,27.2715247 L42.1936371,27.2715247 L42.0245928,25.6640176 L41.9751938,25.6640176 C41.8301691,25.8851801 41.6448096,26.1054362 41.419115,26.3256924 C41.1934205,26.5459485 40.9314698,26.7471701 40.6332629,26.9284509 C40.3346028,27.1097317 39.996061,27.2556627 39.616731,27.3657907 C39.2111711,27.4794062 38.7915816,27.5350971 38.3704258,27.5312094 C37.8061894,27.5312094 37.3099333,27.4405691 36.8816575,27.2592883 C36.4542881,27.0780075 36.1035098,26.8418893 35.8293227,26.5504805 C35.5570907,26.2614155 35.3472843,25.9194002 35.2129681,25.5457319 C35.0785039,25.1825715 35.0088616,24.7986185 35.0072144,24.4113675 C35.0072144,23.0721559 35.5836872,22.0402151 36.7370861,21.3150921 C37.8904849,20.589969 39.6289675,20.2432695 41.9525337,20.2749937 L41.9525337,19.9677228 C41.9525337,19.6677031 41.9239819,19.3246293 41.8677849,18.9389545 C41.8111276,18.5526468 41.683766,18.1800873 41.4920805,17.8399398 C41.2985633,17.4936936 41.0085141,17.2022847 40.6214797,16.9661665 C40.2344452,16.7295951 39.7096374,16.6113094 39.048869,16.6113094 C38.5480809,16.6113094 38.0527312,16.6860878 37.560554,16.8356444 C37.0683767,16.985201 36.6210664,17.1936739 36.2177167,17.4619694 L35.854702,16.6344227 C36.3704457,16.2881765 36.9034112,16.040275 37.4513323,15.8907184 C38.0114569,15.7396327 38.5892814,15.6641848 39.1694207,15.6663835 C39.9761201,15.6663835 40.6332629,15.800078 41.1417554,16.0679204 C41.6497948,16.3357627 42.0490657,16.6824621 42.3395681,17.1075655 C42.6325091,17.5389886 42.834229,18.0257074 42.9323562,18.5378708 C43.0361306,19.0553643 43.0889543,19.5817801 43.0900704,20.109575 L43.0900704,24.5772394 L43.089164,24.5772394 Z M41.9516273,21.1972596 C41.3093582,21.1822337 40.6667668,21.2058428 40.0273319,21.2679591 C39.3584059,21.3305009 38.7411449,21.4691807 38.1769086,21.6812792 C37.6117658,21.8942841 37.1445146,22.2051806 36.7737954,22.6148751 C36.4030763,23.0245697 36.2168103,23.5684119 36.2168103,24.246402 C36.2168103,25.0490226 36.4506625,25.6404511 36.9192733,26.0184215 C37.3860712,26.3963919 37.9104258,26.5858303 38.4914307,26.5858303 C38.959135,26.5858303 39.3788,26.5232884 39.7495192,26.3963919 C40.1206915,26.2704017 40.4424649,26.1009042 40.7171053,25.8888057 C40.9917456,25.6767072 41.2210658,25.4356038 41.4068786,25.1682147 C41.5926913,24.899466 41.7336371,24.6243724 41.8310755,24.3402148 C41.9117455,24.0247863 41.9525337,23.7963725 41.9525337,23.6540671 L41.9525337,21.1972596 L41.9516273,21.1972596 Z M45.313479,15.925615 L48.2647298,23.3001164 C48.4292841,23.7174803 48.5828217,24.1391041 48.725183,24.5645497 C48.8702076,24.9978108 48.9993701,25.3961752 49.1122174,25.7582836 L49.16071,25.7582836 C49.2740105,25.4120373 49.4027198,25.0218305 49.5477444,24.5881162 C49.6932223,24.1553084 49.8545621,23.7098109 50.0317641,23.252077 L52.7908573,15.9251618 L54,15.9251618 L50.6372418,24.2459488 C50.3293403,25.0498309 50.010559,25.8495036 49.6809858,26.6447465 C49.4094196,27.304719 49.1066413,27.9514123 48.7736756,28.5826379 C48.4962106,29.1105898 48.1848122,29.6199994 47.8414393,30.1076623 C47.5392509,30.5351549 47.1858415,30.924027 46.7891044,31.2655932 C46.3381685,31.6589724 45.9221292,31.9472088 45.5427992,32.1284896 C45.1639224,32.3097704 44.9101293,32.4239772 44.7809668,32.4711102 L44.3930259,31.5492976 C44.7248717,31.4020966 45.0482092,31.2364183 45.3615184,31.0530415 C45.7404205,30.8296959 46.089842,30.5597507 46.4016168,30.2495145 C46.6925724,29.9658101 47.0111734,29.5923717 47.3578728,29.1264802 C47.7045723,28.6619482 48.0150156,28.0986182 48.2896559,27.4364902 C48.386188,27.18451 48.4346806,27.0186381 48.4346806,26.9397809 C48.4346806,26.8301061 48.3866412,26.6642342 48.2896559,26.4435249 L44.1029767,15.9247086 L45.313479,15.9247086 L45.313479,15.925615 Z" id="Shape-Copy" fill="#000000" fill-rule="nonzero"></path>
</g>
</g>
</g>
</svg>