<svg width="24" height="19" viewBox="0 0 24 19" fill="none" xmlns="http://www.w3.org/2000/svg">
<path d="M1.74894 14.3874H1.37447C1.18724 14.3874 1 14.2469 1 14.0129V1.37447C1 1.14043 1.14043 1 1.37447 1H15.9789C16.1661 1 16.3533 1.14043 16.3533 1.37447V14.0597C16.3533 14.2469 16.2129 14.4342 15.9789 14.4342H10.6427" stroke="black" stroke-width="1.75" stroke-miterlimit="10" stroke-linecap="round"/>
<path d="M6.24275 17.7577C7.27683 17.7577 8.11511 16.9194 8.11511 15.8853C8.11511 14.8512 7.27683 14.0129 6.24275 14.0129C5.20868 14.0129 4.37039 14.8512 4.37039 15.8853C4.37039 16.9194 5.20868 17.7577 6.24275 17.7577Z" stroke="black" stroke-width="1.75" stroke-miterlimit="0"/>
<path d="M20.3791 17.7577C21.4131 17.7577 22.2514 16.9194 22.2514 15.8853C22.2514 14.8512 21.4131 14.0129 20.3791 14.0129C19.345 14.0129 18.5067 14.8512 18.5067 15.8853C18.5067 16.9194 19.345 17.7577 20.3791 17.7577Z" stroke="black" stroke-width="1.75" stroke-miterlimit="0"/>
<path d="M16.681 4.22961H21.1279C21.1279 4.22961 22.8131 4.88494 22.8131 8.67647V14.3872" stroke="black" stroke-width="1.75" stroke-miterlimit="0" stroke-linecap="round"/>
<path d="M22.5587 10.3618L16.9152 10.3618" stroke="black" stroke-width="1.75" stroke-miterlimit="0" stroke-linecap="round"/>
</svg>
