<svg role="img" xmlns="http://www.w3.org/2000/svg" width="60" height="40" viewBox="0 0 60 40">
<title>Mastercard</title>
<g fill="none" fill-rule="evenodd">
<path fill="#DDD" d="M3.75 39.2c-1.655 0-3-1.436-3-3.2V4c0-1.764 1.345-3.2 3-3.2h52.5c1.655 0 3 1.436 3 3.2v32c0 1.764-1.345 3.2-3 3.2H3.75M56.25 0H3.75C1.685 0 0 1.8 0 4v32c0 2.199 1.686 4 3.75 4h52.5c2.064 0 3.75-1.801 3.75-4V4c0-2.2-1.686-4-3.75-4"></path>
<path d="M9.17 2.73h41.659v34.541H9.17z"></path>
<path fill="#000" d="M19.472 32.939v-1.722c0-.66-.398-1.09-1.079-1.09-.34 0-.71.115-.965.488-.198-.316-.482-.488-.908-.488a.913.913 0 0 0-.794.402v-.345h-.596v2.755h.596v-1.521c0-.488.255-.717.652-.717.398 0 .596.258.596.717v1.52h.596v-1.52c0-.488.284-.717.653-.717.397 0 .596.258.596.717v1.52h.653zm8.825-2.755h-.965v-.832h-.596v.832h-.539v.546h.54v1.262c0 .631.255 1.004.936 1.004.255 0 .54-.086.738-.2l-.17-.517a.926.926 0 0 1-.511.143c-.284 0-.398-.172-.398-.459V30.73h.965v-.546zm5.052-.057a.798.798 0 0 0-.71.402v-.345h-.596v2.755h.596v-1.55c0-.459.199-.717.568-.717.113 0 .255.029.369.058l.17-.574c-.114-.029-.284-.029-.397-.029zm-7.634.287c-.284-.2-.681-.287-1.107-.287-.681 0-1.135.344-1.135.89 0 .458.34.717.936.803l.284.028c.312.058.483.144.483.287 0 .201-.227.345-.625.345-.397 0-.71-.144-.908-.287l-.284.459c.313.23.738.344 1.164.344.795 0 1.249-.373 1.249-.89 0-.487-.37-.745-.937-.831l-.284-.03c-.255-.028-.454-.085-.454-.257 0-.201.199-.316.511-.316.34 0 .681.144.851.23l.256-.488zm15.835-.287a.798.798 0 0 0-.71.402v-.345h-.595v2.755h.596v-1.55c0-.459.198-.717.567-.717.114 0 .256.029.369.058l.17-.574c-.113-.029-.283-.029-.397-.029zm-7.605 1.434c0 .832.567 1.435 1.447 1.435.397 0 .681-.086.965-.316l-.284-.487c-.227.172-.454.258-.71.258-.482 0-.822-.344-.822-.89 0-.516.34-.86.823-.889.255 0 .482.086.709.258l.284-.487c-.284-.23-.568-.316-.965-.316-.88 0-1.447.603-1.447 1.434zm5.505 0v-1.377h-.596v.345c-.199-.259-.482-.402-.851-.402-.767 0-1.362.603-1.362 1.434 0 .832.595 1.435 1.362 1.435.397 0 .68-.144.851-.402v.345h.596V31.56zm-2.185 0c0-.487.312-.889.823-.889.482 0 .823.373.823.89 0 .487-.34.889-.823.889-.511-.029-.823-.402-.823-.89zm-7.123-1.434c-.795 0-1.362.574-1.362 1.434 0 .861.567 1.435 1.39 1.435.398 0 .795-.115 1.107-.373l-.284-.43c-.227.172-.51.287-.794.287-.37 0-.738-.173-.823-.66h2.015v-.23c.028-.89-.483-1.463-1.25-1.463zm0 .516c.369 0 .624.23.681.66h-1.419c.057-.373.312-.66.738-.66zm14.785.918v-2.467h-.596v1.435c-.199-.259-.482-.402-.851-.402-.766 0-1.362.603-1.362 1.434 0 .832.596 1.435 1.362 1.435.397 0 .68-.144.851-.402v.345h.596V31.56zm-2.185 0c0-.487.312-.889.823-.889.482 0 .823.373.823.89 0 .487-.34.889-.823.889-.51-.029-.823-.402-.823-.89zm-19.922 0v-1.377h-.596v.345c-.198-.259-.482-.402-.851-.402-.766 0-1.362.603-1.362 1.434 0 .832.596 1.435 1.362 1.435.397 0 .681-.144.851-.402v.345h.596V31.56zm-2.213 0c0-.487.312-.889.823-.889.482 0 .823.373.823.89 0 .487-.34.889-.823.889-.511-.029-.823-.402-.823-.89z"></path>
<path fill="#FF5F00" d="M25.516 9.27h8.939v16.238h-8.94z"></path>
<path fill="#EB001B" d="M26.084 17.39c0-3.3 1.532-6.226 3.888-8.12a10.085 10.085 0 0 0-6.3-2.209c-5.648 0-10.217 4.62-10.217 10.328 0 5.71 4.57 10.328 10.217 10.328 2.383 0 4.569-.832 6.3-2.209-2.356-1.865-3.888-4.82-3.888-8.119z"></path>
<path fill="#F79E1B" d="M46.516 17.39c0 5.708-4.569 10.327-10.216 10.327-2.384 0-4.569-.832-6.3-2.209 2.384-1.893 3.888-4.82 3.888-8.119 0-3.299-1.533-6.225-3.888-8.119a10.085 10.085 0 0 1 6.3-2.209c5.647 0 10.216 4.648 10.216 10.328z"></path>
</g>
</svg>