<svg role="img" xmlns="http://www.w3.org/2000/svg" width="60" height="40" viewBox="0 0 60 40">
<title>Paypal</title>
<g fill="none" fill-rule="evenodd">
<path fill="#0093C7" d="M39.764 16.439c-.225 1.551-1.352 1.551-2.442 1.551h-.62l.435-2.897a.348.348 0 0 1 .338-.304h.285c.742 0 1.443 0 1.804.445.216.266.282.66.2 1.205zm-.474-4.048h-4.112a.58.58 0 0 0-.564.507L32.95 23.98c-.033.219.128.416.339.416h2.11c.196 0 .364-.15.394-.354l.472-3.142a.58.58 0 0 1 .564-.507h1.3c2.71 0 4.272-1.378 4.68-4.108.185-1.194.008-2.133-.524-2.79-.585-.722-1.62-1.104-2.996-1.104z"></path>
<path fill="#213170" d="M10.439 16.439c-.225 1.551-1.352 1.551-2.442 1.551h-.62l.434-2.897a.349.349 0 0 1 .339-.304h.284c.742 0 1.443 0 1.805.445.216.266.282.66.2 1.205zm-.475-4.048H5.853a.58.58 0 0 0-.565.507L3.626 23.98c-.033.219.128.416.338.416h1.963a.58.58 0 0 0 .565-.506l.448-2.99a.58.58 0 0 1 .565-.507h1.3c2.709 0 4.272-1.378 4.68-4.108.184-1.194.008-2.133-.524-2.79-.585-.722-1.621-1.104-2.997-1.104zM19.51 20.417c-.19 1.183-1.084 1.976-2.223 1.976-.57 0-1.028-.193-1.322-.558-.29-.363-.4-.879-.308-1.454.177-1.172 1.084-1.991 2.206-1.991.56 0 1.013.195 1.313.564.301.371.42.891.334 1.463zm2.743-4.028h-1.968a.348.348 0 0 0-.339.304l-.087.579-.137-.21c-.427-.65-1.377-.868-2.326-.868-2.175 0-4.033 1.733-4.394 4.163-.189 1.212.078 2.37.732 3.18.601.742 1.459 1.052 2.48 1.052 1.753 0 2.726-1.184 2.726-1.184l-.088.575c-.033.219.128.416.338.416h1.773a.58.58 0 0 0 .564-.506l1.065-7.085c.033-.218-.128-.416-.339-.416z"></path>
<path fill="#0093C7" d="M48.835 20.417c-.19 1.183-1.083 1.976-2.222 1.976-.571 0-1.028-.193-1.322-.558-.292-.363-.401-.879-.309-1.454.177-1.172 1.085-1.991 2.207-1.991.559 0 1.013.195 1.312.564.302.371.42.891.334 1.463zm2.744-4.028h-1.97a.348.348 0 0 0-.338.304l-.086.579-.138-.21c-.426-.65-1.377-.868-2.325-.868-2.175 0-4.034 1.733-4.395 4.163-.188 1.212.079 2.37.733 3.18.6.742 1.458 1.052 2.48 1.052 1.753 0 2.725-1.184 2.725-1.184l-.088.575c-.033.219.128.416.339.416h1.773a.58.58 0 0 0 .564-.506l1.064-7.085c.033-.218-.128-.416-.338-.416z"></path>
<path fill="#213170" d="M32.74 16.389h-1.98a.564.564 0 0 0-.472.263l-2.73 4.226-1.157-4.06a.576.576 0 0 0-.547-.429h-1.945c-.235 0-.4.243-.325.476l2.18 6.724-2.05 3.04c-.161.238.001.568.28.568h1.976a.564.564 0 0 0 .47-.258l6.581-9.984c.157-.24-.005-.566-.282-.566"></path>
<path fill="#0093C7" d="M53.9 12.695L52.211 23.98c-.033.219.128.416.338.416h1.697a.58.58 0 0 0 .565-.506l1.663-11.082c.033-.22-.127-.417-.338-.417h-1.9a.349.349 0 0 0-.338.304"></path>
<path fill="#DDD" d="M56.25.8c1.654 0 3 1.436 3 3.2v32c0 1.765-1.346 3.2-3 3.2H3.75c-1.655 0-3-1.435-3-3.2V4c0-1.764 1.345-3.2 3-3.2h52.5m0-.8H3.75C1.687 0 0 1.8 0 4v32c0 2.2 1.688 4 3.75 4h52.5c2.062 0 3.75-1.8 3.75-4V4c0-2.2-1.688-4-3.75-4"></path>
</g>
</svg>