<svg xmlns="http://www.w3.org/2000/svg" viewBox="0 0 100 100"><g id="Rewards"><path d="M84.31,26H65.45l4.41-2.52a4.26,4.26,0,0,0,.6-7L60.75,8.42A4.26,4.26,0,0,0,54.13,10L50,19.18,45.93,10a4.26,4.26,0,0,0-6.62-1.54L29.6,16.49a4.26,4.26,0,0,0,.6,7L34.61,26H15.69A10.68,10.68,0,0,0,5,36.68V51.46a4.31,4.31,0,0,0,4.32,4.31h2.14v24a12.81,12.81,0,0,0,12.8,12.81H75.83A12.82,12.82,0,0,0,88.64,79.76v-24h2A4.31,4.31,0,0,0,95,51.46V36.68A10.68,10.68,0,0,0,84.31,26ZM13.54,47.27V36.91a2.37,2.37,0,0,1,2.37-2.37H41.54V47.27ZM43.63,84.05H24.29A4.26,4.26,0,0,1,20,79.79v-24h23.6Zm36.5-4.26a4.25,4.25,0,0,1-4.25,4.26H56.54V55.8H80.13Zm6.4-32.55h-28V34.52H84.16a2.37,2.37,0,0,1,2.37,2.37Z"/></g></svg>